<svg width="24" height="24" viewBox="0 0 24 24" fill="none" xmlns="http://www.w3.org/2000/svg"><path d="M10.75 16.5833H12.6944V12.6944H16.5833V10.75H12.6944V6.86111H10.75V10.75H6.86111V12.6944H10.75V16.5833ZM11.7222 21.4444C10.3773 21.4444 9.11343 21.1892 7.93056 20.6788C6.74769 20.1684 5.71875 19.4757 4.84375 18.6007C3.96875 17.7257 3.27604 16.6968 2.76563 15.5139C2.25521 14.331 2 13.0671 2 11.7222C2 10.3773 2.25521 9.11343 2.76563 7.93056C3.27604 6.74769 3.96875 5.71875 4.84375 4.84375C5.71875 3.96875 6.74769 3.27604 7.93056 2.76563C9.11343 2.25521 10.3773 2 11.7222 2C13.0671 2 14.331 2.25521 15.5139 2.76563C16.6968 3.27604 17.7257 3.96875 18.6007 4.84375C19.4757 5.71875 20.1684 6.74769 20.6788 7.93056C21.1892 9.11343 21.4444 10.3773 21.4444 11.7222C21.4444 13.0671 21.1892 14.331 20.6788 15.5139C20.1684 16.6968 19.4757 17.7257 18.6007 18.6007C17.7257 19.4757 16.6968 20.1684 15.5139 20.6788C14.331 21.1892 13.0671 21.4444 11.7222 21.4444ZM11.7222 19.5C13.8935 19.5 15.7326 18.7465 17.2396 17.2396C18.7465 15.7326 19.5 13.8935 19.5 11.7222C19.5 9.55093 18.7465 7.71181 17.2396 6.20486C15.7326 4.69792 13.8935 3.94444 11.7222 3.94444C9.55093 3.94444 7.71181 4.69792 6.20486 6.20486C4.69792 7.71181 3.94444 9.55093 3.94444 11.7222C3.94444 13.8935 4.69792 15.7326 6.20486 17.2396C7.71181 18.7465 9.55093 19.5 11.7222 19.5Z" fill="#BDBDBD"/></svg>
