<svg width="118" height="102" viewBox="0 0 118 102" fill="none" xmlns="http://www.w3.org/2000/svg">
<path d="M42.9997 58.6667H96.333L77.933 34.6667L65.6663 50.6667L57.3997 40L42.9997 58.6667ZM10.9997 101.333C8.06634 101.333 5.55523 100.289 3.46634 98.2C1.37745 96.1111 0.333008 93.6 0.333008 90.6667V21.3333H10.9997V90.6667H101.666V101.333H10.9997ZM32.333 80C29.3997 80 26.8886 78.9556 24.7997 76.8667C22.7108 74.7778 21.6663 72.2667 21.6663 69.3333V10.6667C21.6663 7.73333 22.7108 5.22222 24.7997 3.13333C26.8886 1.04444 29.3997 0 32.333 0H58.9997L69.6663 10.6667H107C109.933 10.6667 112.444 11.7111 114.533 13.8C116.622 15.8889 117.666 18.4 117.666 21.3333V69.3333C117.666 72.2667 116.622 74.7778 114.533 76.8667C112.444 78.9556 109.933 80 107 80H32.333ZM32.333 69.3333H107V21.3333H65.2663L54.5997 10.6667H32.333V69.3333Z" fill="black"/>
</svg>
