<svg width="18" height="18" viewBox="0 0 18 18" fill="none" xmlns="http://www.w3.org/2000/svg">
<path d="M8.775 13.5C7.575 13.4375 6.5625 12.975 5.7375 12.1125C4.9125 11.25 4.5 10.2125 4.5 9C4.5 7.75 4.9375 6.6875 5.8125 5.8125C6.6875 4.9375 7.75 4.5 9 4.5C10.2125 4.5 11.25 4.9125 12.1125 5.7375C12.975 6.5625 13.4375 7.575 13.5 8.775L11.925 8.30625C11.7625 7.63125 11.4125 7.07812 10.875 6.64688C10.3375 6.21563 9.7125 6 9 6C8.175 6 7.46875 6.29375 6.88125 6.88125C6.29375 7.46875 6 8.175 6 9C6 9.7125 6.21563 10.3375 6.64688 10.875C7.07812 11.4125 7.63125 11.7625 8.30625 11.925L8.775 13.5ZM9.675 16.4625C9.5625 16.4875 9.45 16.5 9.3375 16.5H9C7.9625 16.5 6.9875 16.3031 6.075 15.9094C5.1625 15.5156 4.36875 14.9813 3.69375 14.3063C3.01875 13.6313 2.48438 12.8375 2.09063 11.925C1.69688 11.0125 1.5 10.0375 1.5 9C1.5 7.9625 1.69688 6.9875 2.09063 6.075C2.48438 5.1625 3.01875 4.36875 3.69375 3.69375C4.36875 3.01875 5.1625 2.48438 6.075 2.09063C6.9875 1.69688 7.9625 1.5 9 1.5C10.0375 1.5 11.0125 1.69688 11.925 2.09063C12.8375 2.48438 13.6313 3.01875 14.3063 3.69375C14.9813 4.36875 15.5156 5.1625 15.9094 6.075C16.3031 6.9875 16.5 7.9625 16.5 9V9.3375C16.5 9.45 16.4875 9.5625 16.4625 9.675L15 9.225V9C15 7.325 14.4188 5.90625 13.2563 4.74375C12.0938 3.58125 10.675 3 9 3C7.325 3 5.90625 3.58125 4.74375 4.74375C3.58125 5.90625 3 7.325 3 9C3 10.675 3.58125 12.0938 4.74375 13.2563C5.90625 14.4188 7.325 15 9 15H9.225L9.675 16.4625ZM15.3938 16.875L12.1875 13.6688L11.25 16.5L9 9L16.5 11.25L13.6688 12.1875L16.875 15.3938L15.3938 16.875Z" fill="#757575"/>
</svg>
